HIERARCHY
ROOT SpineBase
{
  OFFSET 0.000000 0.000000 0.000000
  CHANNELS 6 Xposition Yposition Zposition Zrotation Xrotation Yrotation
  JOINT SpineMid
  {
    OFFSET 0.000000 29.317505 0.000000
    CHANNELS 3 Zrotation Xrotation Yrotation
    JOINT SpineShoulder
    {
      OFFSET -0.039673 21.729843 -0.771084
      CHANNELS 3 Zrotation Xrotation Yrotation
      JOINT Neck
      {
        OFFSET -0.034815 7.187091 -0.576363
        CHANNELS 3 Zrotation Xrotation Yrotation
        JOINT Head
        {
          OFFSET -2.411898 12.252650 0.345511
          CHANNELS 3 Zrotation Xrotation Yrotation
          End Site
          {
            OFFSET 0 0 0
          }
        }
      }
      JOINT ShoulderLeft
      {
        OFFSET -16.685003 -2.720544 5.645309
        CHANNELS 3 Zrotation Xrotation Yrotation
        JOINT ElbowLeft
        {
          OFFSET -2.664787 -25.403737 1.800102
          CHANNELS 3 Zrotation Xrotation Yrotation
          JOINT WristLeft
          {
            OFFSET -3.294066 -21.368200 -4.054010
            CHANNELS 3 Zrotation Xrotation Yrotation
            JOINT HandLeft
            {
              OFFSET 1.217840 -5.817406 -2.177559
              CHANNELS 3 Zrotation Xrotation Yrotation
              JOINT HandTipLeft
              {
                OFFSET 0.064719 -6.873763 -2.005612
                CHANNELS 3 Zrotation Xrotation Yrotation
                End Site
                {
                  OFFSET 0 0 0
                }
              }
              JOINT ThumbLeft
              {
                OFFSET -3.150341 -0.237960 -1.948255
                CHANNELS 3 Zrotation Xrotation Yrotation
                End Site
                {
                  OFFSET 0 0 0
                }
              }
            }
          }
        }
      }
      JOINT ShoulderRight
      {
        OFFSET 15.045067 -2.003834 -5.305813
        CHANNELS 3 Zrotation Xrotation Yrotation
        JOINT ElbowRight
        {
          OFFSET 6.427730 -24.501083 -2.889983
          CHANNELS 3 Zrotation Xrotation Yrotation
          JOINT WristRight
          {
            OFFSET -0.003832 -19.698450 -5.531395
            CHANNELS 3 Zrotation Xrotation Yrotation
            JOINT HandRight
            {
              OFFSET -2.146223 -8.463256 -0.992462
              CHANNELS 3 Zrotation Xrotation Yrotation
              JOINT HandTipRight
              {
                OFFSET -0.685661 -6.777075 -2.147674
                CHANNELS 3 Zrotation Xrotation Yrotation
                End Site
                {
                  OFFSET 0 0 0
                }
              }
              JOINT ThumbRight
              {
                OFFSET 2.234782 -0.613886 -2.348253
                CHANNELS 3 Zrotation Xrotation Yrotation
                End Site
                {
                  OFFSET 0 0 0
                }
              }
            }
          }
        }
      }
    }
  }
  JOINT HipLeft
  {
    OFFSET -7.287949 0.570579 -1.779431
    CHANNELS 3 Zrotation Xrotation Yrotation
    JOINT KneeLeft
    {
      OFFSET -5.636331 -26.692346 3.341681
      CHANNELS 3 Zrotation Xrotation Yrotation
      JOINT AnkleLeft
      {
        OFFSET -2.238791 -37.998190 7.372597
        CHANNELS 3 Zrotation Xrotation Yrotation
        JOINT FootLeft
        {
          OFFSET -2.293984 -5.132771 -9.948532
          CHANNELS 3 Zrotation Xrotation Yrotation
          End Site
          {
            OFFSET 0 0 0
          }
        }
      }
    }
  }
  JOINT HipRight
  {
    OFFSET 6.778522 0.723642 -5.069118
    CHANNELS 3 Zrotation Xrotation Yrotation
    JOINT KneeRight
    {
      OFFSET 4.277103 -29.121659 3.567368
      CHANNELS 3 Zrotation Xrotation Yrotation
      JOINT AnkleRight
      {
        OFFSET 3.024039 -31.979793 9.425063
        CHANNELS 3 Zrotation Xrotation Yrotation
        JOINT FootRight
        {
          OFFSET -3.949755 -7.295810 -5.473143
          CHANNELS 3 Zrotation Xrotation Yrotation
          End Site
          {
            OFFSET 0 0 0
          }
        }
      }
    }
  }
}
MOTION
Frames: 7
Frame Time: 0.033333
27.074342 74.226729 366.766061 0.417491 2.673416 24.219864 0.305824 0.102616 -24.196631 0.053832 0.148837 0.043580 3.419930 -8.692909 -0.891582 0.000000 0.000000 0.000000 -65.827490 23.043206 4.688149 -158.040466 22.888072 -72.273555 -12.355393 -12.437529 13.046795 -1.483229 8.105461 -16.337380 0.000000 0.000000 0.000000 0.000000 0.000000 0.000000 53.000666 66.725686 -19.107716 177.135085 41.080239 -0.402900 12.108273 2.777900 -24.634484 -7.326967 -13.753878 17.777343 0.000000 0.000000 0.000000 0.000000 0.000000 0.000000 0.849527 -0.840441 -24.481073 -1.526586 -2.262554 0.255196 -6.736519 10.100495 7.622496 0.000000 0.000000 0.000000 2.208315 -5.589890 -23.655360 -6.036598 3.067654 -0.485573 -5.474438 29.203231 -8.044777 0.000000 0.000000 0.000000
27.039158 74.181080 366.820718 0.467537 2.685626 24.372602 0.298466 0.097565 -24.349130 0.056204 0.121592 0.045844 2.944808 -9.052566 -0.992867 0.000000 0.000000 0.000000 -65.873621 23.337740 4.856463 -158.037259 23.780434 -73.922450 -13.447291 -12.842334 13.142081 -2.169838 8.073038 -16.662297 0.000000 0.000000 0.000000 0.000000 0.000000 0.000000 56.556549 66.882518 -21.777376 175.581424 41.287425 -1.037759 13.315505 7.520039 -18.221513 -7.241771 -15.179742 15.279016 0.000000 0.000000 0.000000 0.000000 0.000000 0.000000 0.828084 -0.693292 -24.671850 -1.495445 -2.403737 0.287493 -5.418418 7.916962 6.348092 0.000000 0.000000 0.000000 2.238057 -5.603994 -23.789564 -6.063677 3.153129 -0.472365 -5.688446 29.029481 -7.922271 0.000000 0.000000 0.000000
27.021543 74.178532 366.870127 0.516185 2.687977 24.446158 0.283005 0.100427 -24.423092 0.058293 0.101865 0.047546 2.499781 -9.434101 -1.097519 0.000000 0.000000 0.000000 -66.005076 23.755626 5.105452 -158.147075 25.309855 -76.323209 -13.518048 -11.580134 12.774071 -1.239057 4.607526 -12.736242 0.000000 0.000000 0.000000 0.000000 0.000000 0.000000 53.148470 67.794381 -19.591843 178.832758 41.961496 -2.223187 12.884273 8.350658 -17.232468 -6.613358 -14.843247 15.813740 0.000000 0.000000 0.000000 0.000000 0.000000 0.000000 0.808864 -0.584203 -24.771122 -1.480361 -2.499324 0.308519 -2.978501 4.125026 3.731955 0.000000 0.000000 0.000000 1.857533 -5.418293 -23.935364 -5.485803 3.178212 -0.377679 -5.636920 29.079860 -8.230660 0.000000 0.000000 0.000000
27.033203 74.213594 366.929382 0.582722 2.670207 24.348529 0.266918 0.115690 -24.326015 0.058975 0.090925 0.049622 2.173008 -9.898956 -1.209483 0.000000 0.000000 0.000000 -66.205980 24.199943 5.378473 -158.286498 27.206750 -79.228948 -13.982751 -8.360785 10.801584 -1.711625 -0.044881 -8.995061 0.000000 0.000000 0.000000 0.000000 0.000000 0.000000 43.652302 68.842200 -12.908140 -174.546573 42.527718 -3.865432 12.515190 7.959847 -18.106306 -3.971415 -11.396260 20.893691 0.000000 0.000000 0.000000 0.000000 0.000000 0.000000 0.849887 -0.548101 -24.670149 -1.569120 -2.530074 0.301522 -0.008349 -1.775708 0.834765 0.000000 0.000000 0.000000 1.478867 -5.144195 -23.907905 -4.820938 3.151801 -0.274819 -5.360849 29.237411 -8.826429 0.000000 0.000000 0.000000
27.071643 74.299860 366.994957 0.662356 2.630917 24.113067 0.240201 0.142089 -24.091727 0.052995 0.089919 0.050897 1.997659 -10.341525 -1.307429 0.000000 0.000000 0.000000 -66.440071 24.594846 5.638384 -158.319198 28.840094 -81.651985 -17.061584 -4.714894 6.736931 0.101732 -4.652360 -5.104736 0.000000 0.000000 0.000000 0.000000 0.000000 0.000000 29.905131 69.442664 -2.912376 -165.988415 42.638131 -6.195376 11.827275 5.668652 -21.440271 -2.568467 -10.533724 21.023386 0.000000 0.000000 0.000000 0.000000 0.000000 0.000000 0.938031 -0.633936 -24.389890 -1.766005 -2.444070 0.255866 4.343592 -12.704842 -2.915696 0.000000 0.000000 0.000000 1.032546 -4.577631 -23.742708 -3.884234 2.765103 -0.180742 -4.983858 29.601017 -9.612138 0.000000 0.000000 0.000000
27.129489 74.423070 367.067622 0.774929 2.589045 23.755095 0.205432 0.167869 -23.734837 0.043010 0.087904 0.052903 1.776672 -10.757744 -1.407958 0.000000 0.000000 0.000000 -66.606435 25.055402 5.925090 -158.419578 30.419616 -83.747979 -23.473115 1.067652 -0.658836 5.961150 -9.384132 0.452466 0.000000 0.000000 0.000000 0.000000 0.000000 0.000000 15.028857 68.203412 7.800506 -156.870779 41.448482 -8.067583 9.900587 1.274931 -27.718672 -2.886987 -13.700986 14.153716 0.000000 0.000000 0.000000 0.000000 0.000000 0.000000 0.791258 -0.639914 -24.016212 -1.746662 -2.330006 0.236497 5.956120 -16.594706 -4.631570 0.000000 0.000000 0.000000 0.353948 -4.202563 -23.512028 -2.893899 2.780231 -0.021713 -4.456531 29.849888 -10.497847 0.000000 0.000000 0.000000
27.196491 74.581734 367.133310 0.894260 2.550018 23.357361 0.164236 0.193023 -23.338297 0.029259 0.090267 0.054570 1.638356 -11.223491 -1.509289 0.000000 0.000000 0.000000 -66.944841 25.730879 6.358006 -158.804775 32.544240 -85.353592 -36.179270 15.008700 -15.175787 24.188835 -17.707887 19.483501 0.000000 0.000000 0.000000 0.000000 0.000000 0.000000 2.298981 65.955485 16.417973 -148.395156 39.694693 -9.384584 6.882478 -4.629101 -36.497043 -6.794956 -25.117973 -13.274937 0.000000 0.000000 0.000000 0.000000 0.000000 0.000000 0.644334 -0.580920 -23.620089 -1.706145 -2.279848 0.232599 7.310939 -19.917121 -6.192254 0.000000 0.000000 0.000000 -0.153417 -3.815980 -23.195996 -2.159698 2.633474 0.071898 -3.856302 30.156271 -11.329499 0.000000 0.000000 0.000000
